<svg id="Layer_1" data-name="Layer 1" xmlns="http://www.w3.org/2000/svg" viewBox="0 0 1278.52 352.31"><defs><style>.cls-1,.cls-2{font-size:233.94px;font-family:ChillowRegular, Chillow;}.cls-1{fill:#009145;}</style></defs><title>hello-world</title><text class="cls-1" transform="matrix(0.95, -0.31, 0.31, 0.95, 76.88, 283.44)">h</text><text class="cls-1" transform="translate(182.71 249.07) rotate(-10.89)">e</text><text class="cls-1" transform="translate(271.22 230.42) rotate(-3.86)">ll</text><text class="cls-1" transform="translate(403.68 221.39) rotate(2.68)">o</text><text class="cls-1" transform="matrix(0.99, 0.14, -0.14, 0.99, 525.54, 228.72)"> </text><text class="cls-1" transform="translate(567.69 234.34) rotate(12.48)">w</text><text class="cls-1" transform="translate(757.58 273.28) rotate(-0.14)">o</text><text class="cls-1" transform="matrix(0.99, -0.11, 0.11, 0.99, 894.4, 270.85)">r</text><text class="cls-1" transform="matrix(0.99, -0.15, 0.15, 0.99, 1016.75, 257.73)">l</text><text class="cls-1" transform="matrix(0.97, -0.25, 0.25, 0.97, 1116.68, 243.43)">d</text><text class="cls-2" transform="matrix(0.95, -0.31, 0.31, 0.95, 76.88, 264.95)">h</text><text class="cls-2" transform="translate(182.71 230.57) rotate(-10.89)">e</text><text class="cls-2" transform="translate(271.22 211.92) rotate(-3.86)">ll</text><text class="cls-2" transform="translate(403.68 202.89) rotate(2.68)">o</text><text class="cls-2" transform="matrix(0.99, 0.14, -0.14, 0.99, 525.54, 210.22)"> </text><text class="cls-2" transform="translate(567.69 215.85) rotate(12.48)">w</text><text class="cls-2" transform="translate(757.58 254.79) rotate(-0.14)">o</text><text class="cls-2" transform="matrix(0.99, -0.11, 0.11, 0.99, 894.4, 252.35)">r</text><text class="cls-2" transform="matrix(0.99, -0.15, 0.15, 0.99, 1016.75, 239.23)">l</text><text class="cls-2" transform="matrix(0.97, -0.25, 0.25, 0.97, 1116.68, 224.94)">d</text></svg>