<?xml version="1.0" encoding="utf-8"?>
<!-- Generator: Adobe Illustrator 24.0.2, SVG Export Plug-In . SVG Version: 6.00 Build 0)  -->
<svg version="1.1" id="Layer_1" xmlns="http://www.w3.org/2000/svg" xmlns:xlink="http://www.w3.org/1999/xlink" x="0px" y="0px"
	 viewBox="0 0 555.9 593.7" style="enable-background:new 0 0 555.9 593.7;" xml:space="preserve">
<style type="text/css">
	.st0{fill-rule:evenodd;clip-rule:evenodd;fill:#FFFFFF;}
	.st1{fill-rule:evenodd;clip-rule:evenodd;}
	.st2{fill-rule:evenodd;clip-rule:evenodd;fill:#009145;}
</style>
<title>body/mono/Macbook</title>
<desc>Created with Sketch.</desc>
<path class="st0" d="M539.9,334.2c-2.7-1.6-5-1.1-8-0.8c-7.7,0.8-15.3,1.5-23,2.3c-36.7,2.8-73.3,8.6-109.7,12.2
	c-0.9-1.5-2.7-1.2-3.8-0.2c-3.6-0.3-7.7-3.1-11-0.2c-0.1,0-0.2,0-0.3,0c-5.9-11.2-9.9-23.2-13.8-35.2c-2.5-7.4-5.9-14.5-12.1-19.5
	c-10.6-7.4-35-22.4-47.5-21.7c-0.2-2.2-1.2-4.5-3-6c3.8-6.4-11.3-10.6-12.4-9.9c0.7-21.5-9.4-40.1-31.7-44.4
	c-20-4.2-48.4-4.9-59.1,16c-1.2-0.1-13.2-0.2-14.4-0.1c-1.8-2.3-21.7,19.5-13.6,27.1c-73,32.3-114.6,28.5-134.8,119.3
	c-2.7,8.5-2.9,17.9-5.8,26.2c-10.3,24-18.6,49.5-20.7,75.6c-5,1.3-5.6,10.1,0.2,11.4c2.2,0.5,4.1,1.2,5.7,2.4
	c-1.3,21.4,3.9,70.2,7.2,70.1c6.6,21.1,36.3,27.1,57.3,19.7c-3.6,6.8,0,11.1,0,14.7c8.4,0.3,16.9,0.6,25.5,0.8h241.7
	c0.3-2.8-1.2-5.8-4.4-6.4l25.7-5.6c-0.6-0.2,10.6-7.7,19.1-21.6c7.9-15.5,2.5-34.3,6.1-51.2c27.8-2.3,56.1-3.3,83.7-8
	c3.8,11.2,20-2.2,25.2-7.6c0,0,0,0,0,0c2.5-0.7,4.5-3,4.6-5.8c1.8-2.5,2.1-6,0.4-8.5c7.7-44.5,19.5-89.9,23.7-134.8
	c1.5-0.3,2.9-1,4.1-2l-0.1-0.1C542.9,340,543.3,336.1,539.9,334.2z"/>
<g>
	<g id="head_x2F_mono_x2F_Short-5_1_">
		<path id="_xD83C__xDFA8_-Background_3_" class="st0" d="M251.7,22.8c28.7,0,58.3,22.2,68.8,36.4c8.8,11.9,13.6,65.8,13.6,102.3
			c0,7.6,4.2,22,3,29.3c-4.5,26.7-24.1,49.1-62.9,49.1s-66.6-15.4-95.4-56.6c-14,0-20.8-10.7-20.9-27.7c-0.1-11.3,4.4-19,13.5-23.1
			c-3.2-44.5-0.8-72.6,7.4-84.2C191,30.9,223,22.8,251.7,22.8z"/>
		<path id="_xD83D__xDD8D_-Ink_5_" class="st1" d="M239.6,13.3c18.1-1.8,35.8-0.3,53.7,2.9c1.4,0.2,2.1,1.1,2.4,2.2
			c8.4,0.4,16.8,1,25.2,1.5c3,0.2,4.8,3.2,3.4,5.9c-0.3,0.5-0.6,1.1-0.9,1.6l0.4-0.1c2.5-0.8,5.3-1.2,7.7,0.1
			c3.1,1.6,4.4,5.2,3.7,8.6c-0.2,0.8-0.5,1.7-0.8,2.5c0.7,0,1.4,0,2.1,0.1c3.7,0.5,6.4,3.3,6.6,7c0.3,5.6-3.3,11.4-7.6,15.4
			c0.6,1.3,0.9,2.8,0.6,4.3c-0.5,3-2.7,4.8-5.3,6c1.1,3.4,1.6,7,1.3,10.6c-0.1,1.2-1.2,2.2-2.3,2.5c4.2,11.5,6.3,23.9,7.8,35.9
			c1.1,8.6,1.6,17.2,1.7,25.8c0,3.9,0,7.8-0.2,11.7l-0.1,1.5c-0.2,4.2-0.2,8.6-1,12.8c2.6,4.4,3.6,9.9,4.1,14.8
			c0.5,6.1-0.3,12.4-2.2,18.2c-7.3,21.9-29.2,35.8-51.2,39.4c-20.4,3.3-44-1.2-55.9-19.7c-0.2-0.3,0.2-0.5,0.4-0.3
			c8.5,6.9,18.4,10,29.1,11.5c18.6,2.6,39.4-1.8,54.3-13.5c7.2-5.6,12.3-13.8,14.6-22.5c1.2-4.5,1.6-9.2,1.1-13.8
			c-0.5-4.7-2.5-8.7-3.8-13.1c-0.4-1.5,0-2.9,0.9-3.9c0.3-3.6,0.9-7.2,1.1-10.8c0.3-4.1,0.4-8.2,0.5-12.2c0.1-8.5-0.2-16.9-1-25.4
			c-1.3-15.4-4.8-30.5-6.8-45.8c-0.8,0.7-1.8,1-3,0.4l-0.1-0.1l-0.6-0.4c0,0-0.1,0-0.1,0c-4.2,0.4-8.6-0.2-12.6-1.4
			c-4.2-1.3-8.2-3.3-11.7-6c-0.7,3.4-0.9,6.8-0.9,10.2c0,2.2-2.3,3.3-4.1,2.3c-8-4.1-15.7-8.8-22.9-14c-0.8,4.3-1.7,8.7-2.6,13
			c-0.3,1.7-2.5,2.4-3.8,1.6c-5.4-3.2-10.1-7.3-14-12.2c-0.8,1.5-1.5,2.9-2.3,4.4l-1.2,2.2c-1.1,2.1-2.7,4.5-5.2,5.2
			c-2.7,0.7-4.9-1-5.8-3.4c-0.3-0.7-0.5-1.5-0.8-2.3c-2.3,5.2-4.8,10.2-7.7,15c-4.3,7.2-9.5,13.7-14.7,20.3c-1.6,2-4.3,0.1-4.5-1.9
			c-0.1-1.1-0.2-2.3-0.3-3.4c-3,6.1-6.2,12.1-9.6,18l0.5,1.9l0,0c1.4,5.7,2.6,11.4,3.9,17.2c0.4,1.8-0.6,4.5-2.7,4.8
			c-2.6,0.4-5,1.7-7.7,0.8c-2.9-1-3.4-3.5-4.8-5.8c-0.3-0.5-0.6-0.9-0.9-1.3l-0.1,0.1l0,0c-0.2,0.3-0.7,0-0.6-0.3l0.1-0.4l0,0
			c-1.2-1.2-2.6-2.3-3.9-3.4c-3.1-0.5-6.5,0-8.6,1.3c-4.8,2.8-7,8.7-7,14c-0.1,6.3,1.9,13.3,5.2,18.7c1.4,2.4,3.4,4.5,6,5.5
			c2.6,1,5.4,0.7,8.1,1.7c1.7,0.7,2.8,2.6,1.8,4.3c-0.1,0.1-0.2,0.2-0.2,0.3l0.8,1c0.5,0.7,1.1,1.5,1.6,2.3c1.3,1.5,2.8,3,4.1,4.6
			c2.5,2.8,5,5.7,7.5,8.5c2.3,2.7,4.8,5.2,7.4,7.7c2.4,2.3,5.4,4.3,7.7,6.8c2.2,2.4,2.7,6.7-0.8,8.1c-3.9,1.6-7.4-2.1-10.1-4.6
			l-0.1-0.1c-4.9-4.5-9.2-9.6-12.7-15.2c-3.4,2.3-8.4,2.6-11.9,0.2c-1.8-1.2-3.2-3.3-3.9-5.6c-0.6,0.1-1.3,0.2-1.9,0.2
			c-0.3,0.2-0.6,0.4-1,0.5c-2.6,1.3-5.7,0.7-6.9-2.1c-1.1-2.6,0-5.5,1-8l0.2-0.5c0.5-1.4,1.1-3,1.9-4.4c-2.1-1.6-3.9-3.5-5.4-5.7
			c-5.1-7.4-7.6-18.3-6.5-27.2c0.7-5.4,3.2-10.9,7.3-14.5l-0.2-0.4l0,0c-1.2-2.9-2.2-5.9-2.9-9c-0.8-3.6-1.2-7.4-1.5-11.1
			c-0.7-7.8-0.5-15.8,0.4-23.5c1.9-14.6,6.6-29,15-41.1c-2.4-2.9-4.3-6.2-3.3-10.1c0.4-1.8,1.5-3.5,3-4.5c0.9-0.6,1.9-0.6,2.7-1.1
			l0.3-0.1c0.4-0.2,0.1-0.2-0.1-1.2c-0.9-4.1-0.2-8,4.3-9.3c4.2-1.3,8.2,1.4,10.7,4.6c6.5-4.6,15.1-7,22.6-9.1
			C222,15.7,230.8,14.2,239.6,13.3z M169.3,149.5c0-3.3,3.1-5.3,6.2-4.8c2.1,0.4,3.8,1.6,5.4,2.9l0.8,0.6c2,1.6,4.2,3.2,5.4,5.4
			c1.7,3.2-1.9,7.6-5.3,5.3c-2.3-1.6-3.8-4.1-5.4-6.4l-0.2-0.2c-0.7-1-1.3-2.2-2.3-3l-0.2-0.2c-0.3-0.3-0.7-0.5-1.1-0.6
			c-0.8-0.2-2.2,0.1-2.6,1l0,0.1C170,150.1,169.3,150,169.3,149.5z"/>
	</g>
	<path class="st1" d="M280.2,144.7c6.2-3.5,21.7-7.2,22.7,4c0.5,5.1-3.4,9.4-7.8,11.3l-0.2,0.1c-4.2,1.7-11.6,3.7-15.2-0.1
		c-3-3.1,1-8.7,4.7-6.1c1.9,1.3,6,0.3,8.1-0.3l0.1,0c2.3-0.7,5.4-2.9,4.4-5.7c-0.8-2.5-4.5-3-6.7-3.1c-3.4-0.1-6.6,0.7-10,0.9
		C279.9,145.7,279.7,144.9,280.2,144.7z"/>
	<path class="st1" d="M305.8,126.7c8.4-0.4,13.6,8.8,11.7,16.3c-0.3,1.3-1.8,2.6-3.2,2.4l-0.4,0c-0.2,0-0.4,0-0.5-0.1
		c-1.3-0.4-2.5-1.8-2.4-3.2l0-0.4c0.2-3.6-0.2-7.7-4.4-8.5c-3.6-0.7-5.6,2.7-5.6,5.9c0,0.6-0.6,1-1.1,0.7c-2.6-1.6-3-4.7-2-7.4
		C299.1,129,302.2,126.9,305.8,126.7z"/>
	<path class="st1" d="M243.4,128.7c6.1-2,12.7,1.2,15.7,6.6c1,0.3,2.1,1.1,1.9,2.3c-0.2,1.8-0.5,2.9-1.7,4.2c-1.9,2.1-5.5,1-6.3-1.6
		l0-0.1c-0.9-3.3-4.6-5.5-7.9-4.4c-3.9,1.4-3.8,5.5-6.5,7.9c-0.3,0.3-0.7,0.3-1.1,0.1c-2.9-1.4-2.4-5.6-1.3-8.1
		C237.4,132.7,240.1,129.8,243.4,128.7z"/>
	<path class="st1" d="M235.1,110.1c5-5.1,17.9-10,21.3-0.6c0.6,1.8-0.7,4.2-2.6,4.5c-3,0.6-5.7-0.7-8.7-0.5c-2.4,0.2-5,1-6.9,2.5
		c-5.4,4.2-6.6,11.3-10.4,16.6c-0.2,0.3-0.5,0.2-0.6-0.2C226.3,124.8,229.6,115.7,235.1,110.1z"/>
	<path class="st1" d="M299.8,105.1c3.3-1.2,7-1.1,10.3,0c3.3,1,6.4,3,8.7,5.6c1.1,1.2,2.1,2.5,2.9,3.8c0.4,0.7,0.9,2.2,1.3,3.1
		c2.6,1.5,3.7,4.9,1.4,7.3l-0.1,0.1l-0.3,0.3c-1.2,1.2-3.1,1.8-4.8,1.3c-3.8-1.1-4.3-4.1-5.6-7.3c-0.9-2.1-2.4-4-4.2-5.3
		c-4.3-3.2-11.3-4.3-16.4-2.7c-0.3,0.1-0.6-0.3-0.4-0.5c1-1.3,1.5-2.3,2.8-3.3C296.7,106.5,298.2,105.7,299.8,105.1z"/>
	<g id="facial-hair_x2F_Full-2_1_">
		<path id="_xD83D__xDD8D_-Ink_4_" class="st1" d="M315.6,206.7c-1.8-0.6-3.5-1.2-5.2-1.9c-8.9-4.5-19.6-5.3-29-1.5
			c-4.6,1.8-8.8,5.2-13.4,7.3c-1.1,0.4-2.2,0.8-3.3,1.1c-0.7-0.2-1.4-0.5-2-0.7c-4.9-1.8-9.5-4.1-13.9-6.6c-0.5-0.7-1-1.3-1.5-1.9
			c3.2-0.5,6.4-1.2,9.2-2c8.8-2.4,17-6.3,25.7-8.8c8.1-2.3,16.9-3.6,25.1-0.7c3.9,1.4,7.3,3.8,11,5.4c1.9,0.8,4.3,1.7,6.6,1.8
			c-1.5,3.5-3.3,6.8-5.9,9.5C317.9,207.4,316.7,207.1,315.6,206.7z M334.5,179.1c-0.8,0.6-4,2.7-5,4c-0.3-0.1-0.5-0.2-0.8-0.3
			c-0.5-0.6-1.1-0.8-1.8-0.8c-4.8-2.2-9.1-5.4-12.9-9.4c-2.7-2.8-5.5-5.8-9.1-7.4c-4.3-1.9-8.5-1-13-0.7c-4.8,0.3-9.5-1-14.3-0.4
			c-3.5,0.5-6.8,2-9.6,4c-5.8,4.3-9.8,10.2-14.6,15.4c-5.5,5.8-12.3,9.6-19.9,11.5c-0.1-0.1-0.2-0.1-0.3-0.2
			c-5.6-5-10.6-10.8-15.1-16.8c-4.4-5.9-15.8-32.6-18.6-35c-1.2-1-2.4-1.4-3.6-1.4c-2.2,0.1-4.2,1.6-5.1,4
			c-1.5,4.1-0.8,9.3-0.6,13.6c0.2,5.2,0.5,10.4,1,15.6c0.5,5.1,1.3,10.2,2.2,15.3c0.4,2.6,0.9,5.1,1.5,7.7c0.2,0.8,0.4,1.5,0.7,2.2
			c0.3,1.3,0.6,2.5,0.9,3.8c2,8.1,5.2,16.3,11.2,22.3c6.3,6.3,14.9,10.4,22.8,14.1c7.6,3.5,15.5,6.7,23.7,9.2
			c7.1,3.2,14.6,5.7,22.3,7.1c8.4,1.5,17.2,1.6,25.3-1.3c4-1.4,7.7-3.4,11.1-5.9c4.8-2.5,9.2-6,12.7-10.5
			c6.4-8.2,9.4-18.1,10.8-28.3c0.3-2.6,1.6-12.7,1.7-14.2c0.3-5,0.7-10.1,1-15.1C339,178.6,336.1,177.9,334.5,179.1z"/>
	</g>
</g>
<g>
	<path class="st1" d="M266.6,322.6c1.6-1,2.3-2.7,2.9-4.5l0.3-0.9c0.8-2.5,1.8-4.8,3.2-7c3.1-4.7,7.9-7.7,11.4-12
		c3.2-3.9,5.4-8.5,7.4-13.2l0.4-0.9c1.4-3.2,2.7-6.5,3.7-9.9c0.6-0.1,1.1-0.5,1.6-1.1c1.2-1.6,0.8-3.5,0.1-5.4l-0.1-0.3
		c0.1-0.3,0.1-0.6,0.2-1c0.1-0.4-0.4-0.6-0.6-0.3l0,0l-0.1-0.3c-0.1-0.2-0.2-0.4-0.2-0.6c-1-3-2-6-2.7-9.1c-0.7-2.9-1.4-5.8-2.1-8.7
		c-0.4-1.4-0.7-2.9-1-4.3c-0.1-0.4-0.6-2.8-1.1-3.8c0.4-0.3,0.4-0.7,0.1-1.1c-0.2-0.3-0.5-0.4-0.8-0.2l-1.7,6.3l0,0.9
		c-0.1,3.5,0.1,6.8,0.6,10.3c0.5,3.6,1.3,7.1,2.3,10.6l0.1,0.2c0.6,2.2,1.2,5.3,2.9,6.8c-1.7,3.2-3.3,6.4-5,9.5
		c-2.7,5.2-5.5,10.4-10,14.3c-4.1,3.6-8.2,6.7-11,11.5c-2,3.5-5.6,10.1-2.2,13.7C265.3,322.9,266.1,323,266.6,322.6z"/>
	<path class="st1" d="M299.9,258.9l1.5,1.2c1.9,1.4,4.4,2.9,5.5,5.1c1.2,2.2,0.6,5.2,0.3,7.6l-0.1,0.7c-0.3,2.2-0.6,4.5-0.7,6.7
		c-0.4,0.1-0.8,0.3-1.1,0.6c-2.2,2.8-3.4,6.1-5.8,8.7c-2.1,2.4-4.6,4.5-6.3,7.2c-2.4,3.9-2.9,8.6-2.9,13.2c-0.8-0.6-1.7-1.3-2.5-1.9
		l-0.1-0.1c-1.8-1.4-4.2-3.8-6.6-3.2c-2,0.4-3.5,3.1-4.6,4.6l-0.3,0.5c-1.7,2.4-3.1,4.9-4.3,7.5c-0.2,0.4,0.3,0.7,0.6,0.3
		c1.4-1.8,2.8-3.5,4.5-5.1l0.1-0.1c0.9-0.9,3.4-3.7,4.5-3.5c0.4,0.1,1.9,1.7,2.3,2.1l0.8,0.7c0.5,0.4,1,0.9,1.6,1.3
		c0.6,0.5,1.2,1,1.8,1.5l3.7,3.1c1.6,1.3,4.7,0.6,4.5-1.9c-0.4-6.2-1.2-13.1,3-18.2c3.3-4,7.8-7.8,9.4-12.8c1.4,0.4,2.9-0.1,3.3-1.8
		c0.7-3.4,0.8-7,1-10.5l0-0.3c0.2-2.9,0.3-6-1-8.6c-1.2-2.5-3.6-4-5.9-5.3l-0.3-0.2c-2.9-1.6-6.1-3.6-9.4-4.3
		c-0.5-0.1-1.2,0.5-0.8,1L299.9,258.9z"/>
	<path class="st1" d="M120.4,315.6c-0.2-0.3-0.8-0.2-0.7,0.2l3,19.7c1.2,6.8,2.4,13.6,3.5,20.5c2.1,13.6,4.1,27.2,6.3,40.8
		c0.3,2,3.6,1.5,3.6-0.5c-0.1-14-1.5-27.6-4.2-41.3c-1.3-6.8-2.8-13.5-4.6-20.1C125.4,328.4,123.7,321.4,120.4,315.6z"/>
	<path class="st1" d="M236.9,518.9l-4.4,4.8l-0.8,1.1c-1.3,1.8-2.6,3.7-3.9,5.6c-3.1,4.5-6.1,9-9.1,13.6c-6.1,9-12,18.2-17,27.8
		c-1,2,1.6,4.4,3.3,2.5c7.2-8.2,13.4-17.3,18.9-26.7c2.7-4.7,5.4-9.5,7.9-14.3c1.3-2.4,2.5-4.9,3.6-7.3l0.1-0.2
		c0.9-2,2.1-4.2,2.1-6.4C237.4,518.9,237.1,518.7,236.9,518.9z"/>
	<path class="st1" d="M318.6,464.7c-2.5-4-6.9-6.9-11-9.4l-0.9-0.5c-4.5-2.7-9.1-2.7-14.1-2.2l-0.6,0.1l-15.5,2.4
		c-5.3,1.1-10.9,2.2-15.7,4.7c-0.6,0.3-0.2,1.1,0.3,1.1l0,0c4.8-0.4,9.5-1.7,14.2-2.4c5-0.8,10.1-1.5,15.2-1.9c5.2-0.5,10-1,14.6,2
		c4.1,2.7,7.7,6.3,12.5,7.4C318.3,466.2,319,465.4,318.6,464.7z"/>
	<path class="st1" d="M304.8,469.2c-2.8-2.3-6-2.7-9.4-2.3l-21.5,4.3l-5.5,1.4c-0.2,0.1-0.2,0.4,0.1,0.4c4.9-0.4,9.9-0.9,14.8-1.5
		c4.3-0.5,8.7-1.5,13.1-1.7c4.1-0.1,6.3,1.8,8.7,4.3l1.6,1.7c2.4,2.5,5.3,4.4,8.9,3.4c1.4-0.4,1.1-2.4-0.3-2.5
		C310.4,476.4,308.2,471.9,304.8,469.2z"/>
	<path class="st1" d="M355.8,593.7h-6.7"/>
	<path class="st1" d="M542.4,331c-48.8,1.4-97.5,6.1-145.7,14.2c-2.2,0.4-4.4,0.8-6.7,1.1c-0.8-2.5-2.6-5-3.6-7.2
		c-1.2-2.8-2.3-5.6-3.3-8.4l-0.7-1.9c-2.5-7.1-4.8-14.5-8.4-21.1c-3.6-6.7-8.5-12.4-14.6-16.9c-5.5-4.1-12-6.8-18.3-9.3l-1.6-0.6
		c-8-3.2-16.4-5.8-24.1-9.7c-0.5-0.2-1.1,0.4-0.6,0.8c11.5,9.3,25.7,13.7,37.5,22.4c5.8,4.3,10.4,9.4,13.9,15.7
		c3.3,6,5.8,12.3,8.1,18.6l1,2.7c1.3,3.5,2.7,7,4.2,10.5l0.1,0.3c0.7,1.6,1.5,3.8,2.5,5.7c-1.2,0.2-2.5,0.4-3.7,0.7
		c-5.5,1-11.3,1.8-16.7,3.3c-4.8,1.3-8.8,3.9-11.3,8.2c-2.7,4.6-4,10.1-5.6,15.2l-0.7,2.2c-7.2,22.1-13.5,44.4-19,66.9
		c-3.2,13.1-6.1,26.2-8.7,39.4c-0.3,1.3-0.5,2.7-0.8,4c-1.8,0.4-3.4,0-5.3-0.5l-1.1-0.3c-2.1-0.6-4.1-0.6-5.8,0.9
		c-1.9-2.7-4.8-4.9-7.5-6.4c-3.7-2-7.9-3.3-12-4.3l-2.1-0.5c-4.1-1-8.8-2-12.7-1.1c-1.5,0.3-1.3,2.3,0,2.8c2.5,0.9,5.3,0.8,7.9,1.2
		c2.3,0.3,4.6,0.8,6.9,1.3c4,1,8.1,2.1,11.7,4.3c3,1.8,7.6,6.1,6.1,10.1c-1.5,4.2-8,1.2-11.2-0.3l-1.6-0.8c-7-3.5-15-8.1-22.8-4.3
		c-4,1.9-7.4,4.7-11.7,6.2c-2.6,0.9-5.4,1.6-8.2,2.1c-0.3-1.2-1.7-2.3-3.2-1.5c-8,4.1-16,8.2-24,12.3c-1.3-0.1-2.5-0.6-3.5-1.4
		c-4.1-3-6-8.8-7.4-13.5l-0.2-0.9c-1.6-5.9-3.3-12.9-2.4-19c0.2-1.7,0.8-3.1,1.6-4.3c4.5-1.2,9-2.4,13.6-3.5
		c7.2-1.9,14.7-3.3,21.6-6c1.5-0.6,1.6-2.1,0.8-3c8.8-2.4,17.5-5.4,26.3-8.1c3.2-1,6.4-1.9,9.6-2.9l6.4-1.9
		c4.4-1.3,12.5-5.2,15.4,0.4c0.6,1.1,1.8,1.2,2.7,0.7c1.5,1.9,3.2,3.6,4.9,5.3c2.2,2.2,4.8,5.9,7.9,6.2c1,0.1,1.6-1,1.4-1.9
		c-0.3-1.6-1.2-2.3-2.4-3.4l-0.3-0.2c-1.4-1.3-2.9-2.6-4.4-3.9c-2.1-1.7-4.2-3.5-6.5-5c-1.8-4.6-7-5.5-11.5-4.7
		c-6.1,1.1-12.2,3.4-18,5.4l-1.4,0.5c-11.5,3.9-23.2,7.7-34.1,13.1c-5.9,1.1-11.8,3.1-17.6,4.6l-7.7,2.1c0.8-0.5,1.6-0.9,2.4-1.4
		c0.4-0.2,0.3-0.7,0-1c-4.2-2.6-8.8-1.1-12.3,2.3c-1.1,1-1.9,2.2-2.6,3.4c-12.9,3.4-25.8,6.8-38.7,10.2
		c-17.8,4.8-35.6,9.6-53.4,14.6c0.7-1.9,0.9-4.2,1.3-5.9l0.2-0.9c0.6-3.3,1.1-6.7,1.5-10l0.2-1.3c1-7,1.8-14,2.2-21.1
		c0.4-7.2,0.9-14.4,1-21.7c0.1-3.7,0-7.4-0.3-11.1c-0.3-3.3-0.4-6.9-2.1-9.7c-0.2-0.3-0.5-0.2-0.7,0c-1.8,2.3-2.5,5.4-3.1,8.2
		l-0.2,1.2c0,0.2-0.1,0.4-0.1,0.6c-2.1-3.9-4.7-7.7-8-10.7c-0.4-0.3-1.2,0-0.9,0.5c1.9,4.7,4.2,9.2,5.7,14.1
		c0.6,1.8,1.2,3.6,1.6,5.5l-0.1,0.8c-1,7.2-1.7,14.5-2.6,21.7l-0.2,1.7c-0.8,6.6-1.4,13.3-1.9,20c-0.2,3.5-0.6,7-0.8,10.5l0,0.2
		c-0.1,2.6-0.9,6.9,0.7,9.3c-1.4,0.4-2.8,0.8-4.2,1.2c0.5-2-0.2-4.4-2.6-5.4c-19.9-7.6-40.7-12-61.7-14.8
		c-4.6-0.6-10.8-2.7-16.2-2.5c2.7-9.4,4.6-18.9,6.9-28.4c2.6-10.8,5.4-21.5,8.3-32.1c5.7-20.9,11.9-41.7,19.3-62
		c6.5-17.6,15.1-34.7,29.8-46.9c12.5-10.4,27.9-16.8,42.9-22.7l2.6-1c8.7-3.4,17.5-6.5,26-10.4c7.7-3.5,16.2-7.4,22.6-13.2
		c2.7,4.2,6,8.1,9,12.1c4.9,6.8,9.3,14,13.2,21.4c3.7,7.1,6.5,14.7,10.2,21.9c1.8,3.5,8.8,17.4,13.8,10.7c0.4-0.6,0.4-1.3,0.2-2
		c0.9-1.3,2.1-2.5,3-3.7c1.1-1.6,2.3-3.3,3.4-4.9c2.6-3.7,5.3-7.2,8-10.7c2.7-3.4,5.4-6.8,8.1-10.3c1.3-1.7,3-3.7,4.3-5.7
		c1,3.1,0.7,6.5-0.2,9.9c-1.4,5-3.5,10-2.7,15.2c0.7,4.9,4.1,8.1,7.7,11l1.4,1.1c4.6,3.8,8.6,8.3,11.5,13.6c1.5,2.7,2.6,5.6,3.3,8.7
		c0.7,2.9,0.6,5.9,1.4,8.8c0.3,1.3,2.4,1.7,3,0.4c2.2-4.6,1-10.2-0.6-14.9l-0.2-0.5c-1.9-5.2-4.9-9.9-8.5-14.1
		c-1.7-1.9-3.5-3.7-5.5-5.3c-2.2-1.8-4.7-3.5-6.5-5.8c-3.4-4.5-1-10.3,0.5-15.2l0.2-0.5c1.4-4.9,2.2-9.9,0.3-14.8
		c-1.8-4.6-5.3-8.1-9.1-11c-4.1-3.1-8.7-5.6-13.1-8.3c-5-3.1-9.9-6.5-14.5-10.2c-4.2-3.4-8.3-7-12.3-10.7c2.2-1.9,3.9-4.4,5.3-7
		c1.8-3.2,3.7-7,4.3-10.5c0.9-6-6.8-8.2-9.1-2.5l-1,3.2c-5.3-0.5-10.9-0.9-15.8,0.9c-0.3-0.3-1.5,0.3-1.3,0.6c-1.5,0.7-3,1.7-4.3,3
		c-2.9,2.8-5.1,6.2-7.3,9.5l-0.8,1.3c-1.3,2-2.5,4.1-3.9,6l-0.1,0.2c-1.1,1.7-1.7,3.4,0,5c0.6,0.6,1.7,0.8,2.4,0.3c0,0,0,0,0.1-0.1
		l0.1-0.1c0.2,0.4,0.4,0.9,0.7,1.3c-7.2,2.9-14.2,6.6-21.5,9.5c-8.2,3.3-16.5,6.3-24.9,9.3l-0.7,0.3c-16.1,5.8-32.4,11.9-46.3,22
		c-7.5,5.4-14,11.8-19.5,19.2c-5.9,8-10.3,16.9-14.1,26c-7.6,18.3-13.3,37.4-18.8,56.5l-1.6,5.4c-3.5,12.1-6.8,24.3-9.7,36.6
		c-3,12.5-6.3,25-7.6,37.8c-2.1,2.2-2.6,5.4-0.8,8.2c2.1,3.4,5.9,4,9.6,4.2l0.6,0c0.9,0,1-1.3,0.2-1.6c-2.4-0.8-9.8-4.1-6.8-7.3
		c1.3,0.2,2.8-0.4,3.6-1.6c1.5-0.1,3.2,0.2,4.8,0.6c-1.4,11.4-1.8,22.9-1.9,34.4c-0.1,10.8,0.1,21.6,2.7,32.2
		c2.3,9.2,6.5,17.9,12.5,25.3c5.7,7,12.7,12.7,21.8,14.2c9.3,1.5,18.8,0.2,28-2.5c-0.3,1-0.4,2-0.6,3c-0.4,2.8-1.6,6.7-0.3,9.3h4.2
		c1.4-1.9,1-4.7,0.8-7l0-0.5c-0.2-2.1-0.3-4.1-0.1-6.1c8-2.7,15.8-6.4,23-10l1.5-0.8c20.9-10.6,41.6-21.6,62.4-32.4l10.4-5.4
		c10.4-5.4,20.8-10.9,31.3-16.3c1.7,0.2,3.5,0,5.3-0.8c1.8-0.7,3.6-1.7,4.5-3.6c0.1-0.3,0.3-0.6,0.4-1l13.7-7.2
		c5.2,2.5,11,4.1,16.3,6.4c5.7,2.4,11.4,5,17.1,7.5c11.4,4.8,23,8.9,35.5,8.9c1.4,0,2.4-0.7,3-1.6c0.5,0.7,1.3,1.2,2.4,1.2
		c8.9-0.1,17.8-1,26.7-2l5.8-0.7c-0.1,0.6-0.2,1.1-0.3,1.7c-0.2,1.5-0.4,3.1-0.6,4.6c-0.5,3.6-0.7,7.2-0.9,10.8
		c-0.4,7-0.5,14-0.2,21.1c0.2,6.8,0.9,13.7,1.8,20.5c0.5,3.5,1,7,1.6,10.5c0.1,0.8,0.2,1.5,0.4,2.3h6.7c-0.3-1.4-0.6-2.8-0.9-4.1
		c5.1,0.8,12-1.4,15.7-2.9l0.5-0.2c4.2-1.7,7.9-4.4,11.5-7.1c3.5-2.7,7-5.4,9.9-8.7c3.2-3.5,5.3-7.5,6-12.3c0.5-3.8,0.8-7.6,1-11.4
		l0.2-4.7c0.4-8.7,0.4-17.1-0.6-25.7l64.6-7.3c12.1-1.4,24.5-2.2,36.5-4.3c4.7-0.8,9.4-2.5,12.8-6.1c3.1-3.3,5-7.5,6.3-11.8
		c1.4-4.8,2-9.8,2.8-14.8c1-6.1,2.2-12.2,3.3-18.4c2.1-12.1,4.1-24.2,6.1-36.3c4.6-27.7,8.7-55.5,13.4-83.2
		C545.3,332.8,544.3,331,542.4,331z M204.7,226.5l-1.1,5.2c-0.5,2.2-1.2,4.5-1.5,6.8c-3.4-3.4-6.8-7-10.3-10.3
		C195.8,226.8,200.4,226.9,204.7,226.5z M176.1,248.7c0.4-0.8,0.9-1.5,1.3-2.3c1-1.8,1.9-3.6,2.9-5.4c1.8-3.3,3.7-6.8,6.3-9.6
		c0.8-0.9,1.8-1.6,2.7-2.2l6.3,8.9l1.2,1.6c3.5,4.5,7.7,8.5,11.9,12.3c7.9,7.2,16.9,13,26,18.6l2.4,1.5c3.7,2.3,7.5,4.8,10.2,8.3
		c0.4,0.5,0.8,1.1,1.1,1.6c-2.9,1.5-5.3,4.7-7.3,6.8l-1.1,1.1c-2.8,3.1-5.5,6.2-8.2,9.3c-2.9,3.5-5.8,7-8.5,10.7l-0.1,0.1
		c-1.2,1.6-3.6,4.3-4.6,6.9c-0.1-0.1-0.2-0.2-0.3-0.3c-2.5-3-4.4-6.5-6.2-9.9c-3.5-6.9-6.4-14.2-10.1-21c-3.8-7-8.3-13.5-13.4-19.6
		c-3.3-4-12.7-14.3-12.8-14.5c-0.4-0.5-0.7-0.9-1-1.4C175.3,249.8,175.9,249.1,176.1,248.7z M123.7,558.2
		c-17.8,9.2-36,20.3-56.5,21.8c-4.3,0.3-8.6,0.2-12.8-0.9c-4.5-1.2-8.1-3.6-11.5-6.8c-6.7-6.2-11.7-14.2-14.9-22.7
		c-3.9-10.4-4.9-21.7-5.4-32.8l-0.1-1.8c-0.5-9.9-0.5-19.9-0.5-29.8l0-7l2.2,0.6c2.8,0.7,5.6,1.6,8.5,2.2c4.1,0.9,8.2,1.5,12.3,2.4
		c15.9,3.4,31.5,8.1,46.8,13.6c-2.1,0.6-4.2,1.2-6.2,1.8c-11.3,3.2-23,6.9-31.2,15.7c-0.3,0.3,0.1,0.7,0.4,0.4
		c7.7-7.2,17.8-10.3,27.8-12.8l2.1-0.5c12.7-3.1,25.4-6.1,38-9.3c25.6-6.5,51-13.4,76.5-20.2l0.7-0.2l-0.7,6.9
		c0.1,5.9,1,12,2.4,17.7c1.4,5.4,3.4,10.9,7.3,14.9c0.7,0.7,1.4,1.3,2.2,1.9C181.9,528.1,152.8,543.1,123.7,558.2z M311.6,518.8
		c-0.5-0.4-1.2-0.6-2.1-0.6c-11.6,0-22.8-3.9-33.5-8l-4.4-1.7c-4.4-1.7-8.9-3.4-13.4-4.7c-4.4-1.3-9.2-2.8-13.9-3l1-0.5
		c0.2-0.1,0.3-0.2,0.4-0.3c2,0.1,3.9,0.1,6-0.3c3.9-0.7,7.7-2.1,11.2-4c4.2-2.3,7.6-4.3,12.7-3.2c4.4,0.9,8.3,3.4,12.3,5.4
		c4.9,2.4,15,6.5,17.3-1.4c0.8-2.9,0.2-5.5-1.2-7.9c2.7-0.2,7.5,3,11,3.2L311.6,518.8z M391.2,537.3c-0.7,4.3-1.4,8.6-2,12.9
		c-0.5,3.5-0.7,7.5-2.2,10.7c-1.2,2.4-3.1,4.4-5,6.3l-1.9,1.9c-2.3,2.3-4.8,4.5-7.5,6.4c-2.8,1.9-5.8,3.8-8.9,5
		c-1.9,0.7-6.9,2.3-8.3,0.6c-0.6-0.7-1.4-1.1-2.1-1.2l-0.1-0.7l-0.2-1.4c-0.9-6.9-1.5-13.9-2-20.8c-0.5-7.2-0.6-14.4-0.5-21.6
		c0.1-3.6,0.2-7.2,0.3-10.8c0-0.7,0.1-1.6,0.2-2.5l16.2-1.8c7.4-0.8,14.9-1.6,22.3-2.5l6.8-0.8L391.2,537.3z M527,404.3
		c-4.2,23.8-7.7,47.7-12.2,71.5l0,0.2c-1.5,7.9-3.5,17.7-12.4,20.2c-5.2,1.4-10.9,1.5-16.2,2.1l-90.4,10.2
		c-13.7,1.5-27.3,3.1-40.9,4.7l-1.3,0.1c-13.2,1.5-26.5,2.7-39.5,5.5c-0.5,0.1-0.9,0.3-1.2,0.5c2.6-9.9,5.1-19.8,7.4-29.8
		c2.6-11.3,5-22.5,7.7-33.8c5.5-22.6,11.7-45.1,18.4-67.3c1.7-5.6,3.5-11.2,5.2-16.8c1.5-4.7,2.8-10.5,7.4-13.2
		c4.4-2.6,10.3-3,15.2-3.9l2.9-0.6c4.9-0.9,9.8-1.8,14.7-2.6c23.5-4,47-7.3,70.7-9.7c25.5-2.6,51-4.3,76.6-5.1L527,404.3z"/>
	<path class="st1" d="M247.8,323.8c-5.5-2.3-6.8-8.1-9.9-12.5c-0.3-0.4-1.1-0.3-1,0.3l5.6,12.7c1.6,1.7,3.5,2.8,5.7,3.4
		c1.7,0.5,3.7,0.6,5.2,1.6c1.1,0.7,1.5,1.9,2.2,2.9c0.5,0.7,1.6,0.4,2-0.3c1.2-1.9,0-4-1.6-5.2C253.6,324.7,250.5,324.9,247.8,323.8
		z"/>
	<path class="st1" d="M157.9,377c4.2-17,2-35.3-4.6-51.5c-0.3-0.7-1.5-0.5-1.2,0.3l1.8,50C153.4,378.4,157.2,379.6,157.9,377z"/>
</g>
<circle class="st2" cx="436.5" cy="420.1" r="16.3"/>
<circle class="st1" cx="442.3" cy="414.3" r="16.3"/>
</svg>
