<?xml version="1.0" encoding="utf-8"?>
<!-- Generator: Adobe Illustrator 24.0.2, SVG Export Plug-In . SVG Version: 6.00 Build 0)  -->
<svg version="1.1" id="Layer_1" xmlns="http://www.w3.org/2000/svg" xmlns:xlink="http://www.w3.org/1999/xlink" x="0px" y="0px"
	 viewBox="0 0 1445.4 3033.3" style="enable-background:new 0 0 1445.4 3033.3;" xml:space="preserve">
<style type="text/css">
	.st0{fill-rule:evenodd;clip-rule:evenodd;fill:#FFFFFF;}
	.st1{fill-rule:evenodd;clip-rule:evenodd;}
</style>
<title>pose/standing/walking-3</title>
<desc>Created with Sketch.</desc>
<g>
	<g id="pose_x2F_standing_x2F_walking-3">
		<path id="_xD83C__xDFA8_-Background" class="st0" d="M1212.2,2906.9c7-32.8-25.1-43.8-45.4-51.1c-14.5-9.4-68.4-42.1-110.1-82.4
			c-34.1-33-57.3-75.2-67-79.3c-6.6-3.8-10.3-7.2-11-10.1c-6.1-25.1-1-48.5,0-63.7c19.4-5.1,34.9-11.4,46.6-20.3
			c3.4,1.1,8.5,2.6,10-2.4c10.5-70.1,15-139.4,23.6-209.5c32.4-267.2,36-579.3-19.7-823.3c-0.6-12.1,0.5-23,1.5-33.4
			c7.5-0.8,12.1-8.1,18.2-12.5c9.5-7.6,20.8-13.4,20.4-26.7c2.3-1.7,2-2.7,0.9-4.9c7.3-31.3-25.2-64.3-34.4-90.1
			c16.7-163.2-6-317.4,6.6-480.6c16-6.7,5.2-48.5,4.1-65.8c-8.9-111.2-66.7-221.1-170.7-257.4c-5.9-1.2-14.9-8-19.8-3.4
			c-9.5-3.8-22.2,3.7-29.5-4.9l0.1-0.1c-6.2-8.6-9-19.5-11-29.9c0.3,2.9,0.9,5.8,1.6,8.6c-17.9-50.6-22.5-64.1-80.2-66.5
			c-26-0.3-60.3,0.4-75.5,25.2c-6.2,11.5-4.3,24.8-8.2,36.9c-7.1,22.3-37.7,11.5-53.7,23.1C481.3,623.8,376,707.9,341.3,842.9
			c-7.1,16.3-15.1,32.5-21,49.2c-0.9,2.5-3.4,10.9,2.6,14.8l2.9,1.9c-38.6,180.2-41.1,332,88.4,452.2c9.7,51.6-15.3,122.1-5.7,172.2
			c-5.5,7.8,1.5,14,8.5,14.5c0.7,0.4,3.4,1.6,4.1,1.9c-11.1,157.3,35.6,369.3,56.3,453c2.8,50.2-14.3,91.5-49.6,118.9
			c-39,24-116,132.4-101.7,246.1c-16.7,3.3-33.3,5.1-49.3,11.3c-70.1-12.4-69.4,122.7-73.8,170.2c-7.6,79.5-12.3,194.8,63.3,245.7
			c19.9,14.4,60.3,31.3,80.9,8.2c6.8-8.1,8.5-16,5.8-24.3c34.1-48.2,24.9-111.4,28.1-167.9c9.9-0.6,20.3,4,29.8,2.4
			c9.8-8.7-26-6.3-29.8-6.8c0.4-8.7,1.1-17.9,2-26.7c5.6,1.1,12.8,3.8,18.2,4c3.2,0.8,5.5-3.6,3.5-5.9c-4.2-4-15-3.4-21-4
			c1-7.4,2.3-15.1,3.7-22.2c7.4-0.3,15.1,4.5,22.1,3.5c-5.3-3.5-15.3-2.5-21.8-4.8c4.2-22.9,12.8-44.7,20.8-66.2
			c19.6,8.1,36.4,8.4,55.6,6c7.8,1.2,11.6-0.4,12.9-10.2l-0.5-0.6c15.1-90.6,64-177,154.8-274.9c17.9-20.1,38.2-43.7,51.7-70.1
			c27.1-55,31.8-115.6,52.6-172.7c19.5-57.4,46.2-112.3,71.2-166.6c3.7,27.9,8.6,56.5,13.7,83.8c22.6,96.9,20.4,200.2,3.8,297.6
			c-24.6,136.4-12.7,273.5-18.2,410.8c0.1,7.9,1.1,15.1-0.1,23.4c-0.2,0.6,0.1,1.4,0.9,1.4l1.4,0c11.8,8.7,28.1,10.2,42,14.9
			c5.8,4.6,4.2,11.9,4.7,17.6c1.5,24.6,3.5,49.2,1.1,74.6c-10.7,20.5-24,16.3-26.7,45.2c-2.4,33-6.6,68.2,9.5,97.6l-6.1,1
			c-9,19-3.5,31.3,17.7,39.3c104.8,41.1,252.3,78.4,361.6,47.4c2,2,4.9-0.1,7.1-3.2c2.2-3,3.8-6.9,3.4-9.2
			C1220.9,2927.2,1223.5,2908.8,1212.2,2906.9z"/>
		<path id="_xD83D__xDD8D_-Ink" class="st1" d="M1216.7,2939.8c-94.2,42.3-265.2-11.1-357.7-41.9c-24.9-9-33.3-10.8-26.3-39.5
			c13.1,25.2,41.2,31.3,68.2,36.4c91.3,20.8,184.4,59.2,282,40.5c14.3-2.3,28.5-10,32.7-24.3c2.6,6.1,1,14.3,2,21
			C1217.8,2934.5,1217.8,2937.4,1216.7,2939.8 M835.9,2782.5c1.7-17,4.4-34.9,14.1-49.8c-1.1,24.2,13.5,65.4,45.4,51.7
			c9-4.8,14.1-14.4,19.9-22.2c19.3-25.5,44.1-47.6,72-63.6c15.6,2.7,22.3,31.1,32.3,43c-11.2,5-31.4,16.3-33.5,28.1
			c14-4.7,26.8-13.4,41.5-16.5c4.7,6.5,9.7,12.8,14.9,18.8c-6.8,3-34.3,16.9-34.1,23.8c14.9-2.4,29.3-9.7,44.2-12.7
			c6.7,6.6,12.7,13.7,19.3,20.3c-10,4.1-20.6,8.7-26,18.3c-0.3,0.4,0.4,0.9,0.7,0.5c7.5-9,20.4-10.7,31.6-12.7
			c17.1,16.1,36.3,30.4,57.8,41c21.5,11.8,54.2,14.4,62.7,39.9c6.8,25.5-14.5,28.2-34.2,30c-19.9,2.8-40,3.3-59.7,1.6
			c-61.8-2.6-120.3-20.8-178.7-36.7C854.5,2872.3,831.3,2861.7,835.9,2782.5 M972.2,2690.4c-27.4,20.2-54.1,42.8-73.1,71
			c-12.6,23-29.3,9-33.5-9.4c-3.4-41.1-0.5-76.6-4.4-117.9c37.9,5.2,76.7,2,113.7-7.1c-4.4,18.4-6.5,25.5-6.6,44.4
			C968.5,2677.6,968.4,2685.2,972.2,2690.4 M835.6,1488.1c-3.6,1.3-5.2-4.5-1.6-5.8c2.5-0.9,5-1.7,7.5-2.5c0.3-0.7,0.9-1.2,1.7-1.6
			c29.5-10.7,62.4-9.7,93.1-7.1c16.5,1.4,33,3.2,49.4,6.1c15.6,2.8,31.2,6.2,46.8,8.9c3.2,0.4,6.4,0.8,9.6,1.1c3.8,0.4,3.8,6.4,0,6
			c-0.7-0.1-1.4-0.2-2.1-0.3c-0.5,0.2-1,0.2-1.6,0.1c-2.4-0.4-4.9-0.8-7.3-1.2c-10.7-1.4-21.3-2.9-32-4.5c-28-4.1-56.2-8.2-84.5-9.3
			C888.1,1477.2,860.9,1478.8,835.6,1488.1 M1037.4,918.4c-6.5,89.8-4.8,169.9-3.4,259.8c0.8,60.5,1.2,121-0.9,181.4
			c-53.2-137.6-36.9-286.9-44.5-431.5C1004.3,922.9,1021.2,920.6,1037.4,918.4 M765.7,1582c5,9.5,13.3,17.2,23.3,21.9
			c-1.2,2.4-1.6,5.1-1.8,7.6c-17.8,3.7-12.8,12.1-24.9,16.2c-7.9,2.2-15.5,3.1-22.3,7.9c-23.2,21.6-29,20-53.9,1
			c0.3-1.7-33.6-34.8-44.1-53.3c-8.8-15.4-17.9-31-31.3-42.9c-65.7-67.2-135.6-130.7-199.2-199.8
			c-127.4-126.9-103.1-270.9-73.8-429.5c47.2,5.6,94.7,17,137.3,37.8c-15,70-16,133.4-22.4,204.4c-2,8.8,0.3,25.7,12.7,21.8
			c114.3,90.8,127.6,277.4,277.7,331.3c61.2,24.9,35.4,45,55.6,92c-11.1-2-21-11.4-25.8-20.3C770.3,1573.7,763.4,1577.6,765.7,1582
			 M483.5,1525.6c-3.7,0.4-7.4,0.7-11.1,1c-0.4,0.3-1,0.6-1.6,0.7c-5.8,0.7-11.6,1.7-17.4,2.9c-8.6,3.1-17.3,5.8-26,8.8
			c-0.8,0.4-1.5,0.8-2.3,1.1c-0.7,0.4-1.4,0.4-2,0.3c-0.3,0.1-0.5,0.2-0.8,0.3c-0.1,0-0.1,0-0.2,0.1c-0.2,0-0.5,0-0.7,0
			c-0.3,0-0.9,0-1.6-0.1c0-0.3,0-0.5,0-0.8c-2.4,0.1-4.6-3-2.3-5c8.4-7.4,19.8-10.1,30.6-11.8c11.7-1.8,23.6-2.1,35.4-3.5
			C487.3,1519.2,487.2,1525.2,483.5,1525.6 M375.6,2545.4c-10.5-0.8-55.5-2.4-60.9,4.7c6.1,2.6,14.4,1.2,21,1.4
			c12.7,0.5,25.4,1.6,37.9,3.4c-0.9,4.9-1.8,9.8-2.5,14.7c-12.7,1.2-37.4,1.8-45.4,10.6c14.4,2.3,29.3,0.2,43.7,3.1
			c-0.7,6.7-1.2,13.4-1.6,20.2c-5.7,0.6-39.5,6.2-39.5,11.5c12.6,1.7,26-0.5,38.9,0.7c-2.8,40.3,6.7,162.1-48.5,169.6
			c-48.2-2.5-69.3-80.6-75.9-118.1c-14.5-87.3-12-180.4,16.8-264.5c10.3-23.4,38.3-27.5,61.9-28.7c0.9,4,1.8,7.8,2.8,11.8
			c-10.3,23.3-13.5,49.5-13.8,74.6c2.2,36.2,46.8,63.1,79.2,39.2C383.7,2514.4,379,2529.8,375.6,2545.4 M311.8,2805.7
			c-95.5-20.5-111.1-131.1-104.5-212.3c5.3-56.6-1.1-175.9,51.1-209.1c-67.5,61.6-61.6,481.1,88,407.9
			C342.6,2803.9,323.4,2807.4,311.8,2805.7 M330.5,2411.3c0.2-1.5,0.4-2.9,0.6-4.4c10.6,28.8,28.7,56.1,55.7,72.8
			c-10.3,12.9-30.5,16.7-44.1,6.2C319,2468.1,328.9,2435.9,330.5,2411.3 M655.8,573.3c-0.2,0.3-0.4,0.7-0.6,1
			c-1.3,0.1-2.6,0.2-4,0.4C652.8,574.2,654.3,573.8,655.8,573.3 M1226,2922.3c-0.3-7.2-0.4-16.4-8.7-18.9
			c3.8-30.8-21.8-48.4-48.7-56.9c-22.9-14-48.9-23.8-70-40.7c9.8-1.8,19.6-4.1,28.3-8.3c6.6-3.2,3.4-13.9-3.7-12.9
			c-12.6,1.7-23.9,8.1-35.7,12.5c-6.7-5.5-13.2-11.3-19.4-17.4c7.7-1.5,17.4-0.9,21.9-8.5c1.4-2.4,0.8-4.8-0.9-6.7
			c-7.8-7.9-23.1,0-32.8,2.3c-4.6-5.3-9.1-10.8-13.5-16.3c7.3-0.7,26.2,0.7,22.5-11.4c-7.1-9.4-22.4-3.8-32.7-1.8
			c-13-16-17.2-40.6-37.6-49.5c-0.7-3.9-5.8-3.6-9.2-2.4c-5-23.8-4.6-35.9-3.1-60.4c15.1-4.2,30.1-9.7,42.7-18.7
			c5.8,1.7,12.8-0.3,14-7c10.5-69.5,15.1-139.9,23.6-209.7c31-257,37.8-570.7-19.7-824.6c-0.5-9.6,0.2-19.3,1.2-28.8
			c6.8-1.8,10.9-8.5,16.6-12.4c10.5-8.6,21.3-13.4,22.2-28.4c2.1-2,2.4-5.1,1.2-7.8c2.7-15.4-1.3-30.7-9.5-44
			c-9-15.1-17.5-30.4-24.9-46.3c16.4-160.3-5.8-315.6,6.3-476.6c15.6-8.3,5.8-54.1,4.4-69.4c-9.1-100.4-56-211.2-155.6-252.9
			c-7-5.9-16.8-7.9-25.3-11.2c-5.8-2.8-15.2-5.3-19.1,1.3c-4.2-2-17.7-3.4-22.3-6.8c-0.9-0.6-1.4-1.3-1.5-2.1
			c-0.3,0-0.7-0.1-1.2-0.2c-4.3-6-8.3-48-13.6-45c-5.7,14.4-1.8,30.7,3.7,45.2c3.8,12.9,9,45.9,29,37.5c3.5-1.7,1.3-6.2-1.8-6.5
			c-9.5-2.7-11.6-16.7-15.3-24.9c4.4,3.6,24.2,9,26.4,10.2c43.1,98.9-217.4,93.7-237.9,25.5c-14.6-23.5-2-36.3,24-40.1
			c-19.1,21.3,5.1,26,14.3,5.1c8.8-14.9,12.8-33.1,9.8-50.3c1.5-6,2.9-14.1-6.2-12.5c-0.3-0.8-0.8-0.2-0.6,0.4
			c-3.3,5.2-1,12.8-2.2,18.8c-1,9.9-3.8,19.6-8.6,28.4c-8.9,1.7-17.7,3.5-26.4,5.5c-5.3-10.7-39.4,10.6-48.5,13.1
			c-121.7,36-214.2,131.7-246.5,252.5c-7.2,16.1-15,32.2-20.9,48.8c-2.6,7.2-2.6,16.1,4.6,20.7c-35.3,162.1-44,330.9,89.5,452.5
			c3,13.2,1,27.1,0.9,40.5c0.9,23.8-14.8,92.8-7.3,128.3c-0.8,1.6-1.4,3.2-1.6,5c-1,8.3,5.7,13.6,13.1,14.9c0.2,0,0.5,0.1,0.7,0.1
			c0.2,0.1,0.3,0.2,0.5,0.3c-8.9,135.5,24.3,319.9,56.5,450.6c2.4,44.9-11.2,85.8-47.6,114.1c-69.3,51.8-98.5,138.4-106.7,220.8
			c-1.1,8.4,0,17.1,1.9,25.4c-15,2.8-29.1,4.6-43.7,10.1c-80.5-15.4-74.7,157.5-80.9,208.8c-4.8,75.8-1.8,166.8,67.9,216.4
			c23.4,16.7,64.8,32.7,87.6,7.4c6.5-7.7,10-16.8,7.4-26.6c32.7-47.9,25-109.2,27.4-163.7c8.6,0.3,17.9,4.1,26.4,2
			c6.5-1.7,7.3-10.1,1.8-13.4c-7.9-4.5-18.7-2.8-27.6-3.1c0.3-5.2,0.7-10.4,1.2-15.7c8.4,2.1,20.5,7,23-4.8c1-10.7-12.5-11.6-21-12
			c0.6-4.1,1.3-8.1,2-12.1c6.5,0.7,13.3,4.8,19.6,2.8c3.6-1.4,4.8-5.1,2.2-8c-4.9-4.8-13.3-3.8-19.7-5.3c3.9-19.3,11-37.7,17.9-56.1
			c12.4,4.3,25.8,7.1,39,6.1c6.8-1.4,14.3-1.8,21.3-0.9c7.7-2,9.5-10.3,10.5-17c-0.1-0.2-0.3-0.5-0.5-0.7
			c17.8-103.6,81.6-193.1,153.2-270.2c19.7-22.1,39-45,52.4-71.2c27.2-54.8,32.1-116.4,52.9-173.3c17.5-51.7,41-101.2,63.9-150.8
			c9.2,65.3,26.4,129.6,28.4,195.9c3,83.8-15.5,166.4-23.4,249.6c-14.2,109.4-1.3,219.6-8.1,329.1c0,7.8,1,15.1-0.1,22.8
			c-0.6,4.3,2.5,7,5.7,7.1c11.9,7.8,26.9,10.6,40.5,13.9c3.8,2.9,2.2,10,2.8,14.4c1.5,24.6,3.4,43.1,1,67.8
			c-13.4,19.8-23,16.6-26.7,46.7c-2,31.4-6.6,65.3,7.2,93.8c-6.1,1.4-8.5,20.1-7.5,25.1c1.6,14,13.9,18.4,25.8,23.2
			c87.1,32.6,272.2,86.4,361.7,49.4c6.4,3.6,13.6-3.5,15.6-9.2C1229,2936,1226.5,2929.2,1226,2922.3"/>
	</g>
	<g id="head_x2F_mono_x2F_Short-5">
		<path id="_xD83C__xDFA8_-Background_1_" class="st0" d="M731,111.5c56.8,0,115.5,44,136.3,72.1c17.5,23.6,26.9,130.4,26.9,202.5
			c0,15.1,8.3,43.5,5.9,58c-8.9,52.9-47.7,97.3-124.5,97.3S643.8,511,586.7,429.2c-27.7,0-41.1-21.2-41.3-54.8
			c-0.1-22.3,8.8-37.6,26.7-45.7c-6.4-88.2-1.5-143.8,14.6-166.7C610.9,127.6,674.2,111.5,731,111.5z"/>
		<path id="_xD83D__xDD8D_-Ink_1_" class="st1" d="M707.1,92.8c35.9-3.6,71-0.6,106.3,5.7c2.7,0.5,4.2,2.3,4.8,4.4
			c16.6,0.8,33.3,2,49.9,2.9c6,0.3,9.4,6.3,6.7,11.7c-0.5,1.1-1.1,2.1-1.7,3.1l0.7-0.2c5-1.6,10.4-2.4,15.3,0.2
			c6.2,3.2,8.6,10.4,7.3,17c-0.4,1.7-0.9,3.3-1.6,4.9c1.4-0.1,2.7-0.1,4.1,0.1c7.2,1,12.6,6.5,13,13.9c0.6,11.2-6.6,22.5-15.1,30.5
			c1.2,2.5,1.7,5.5,1.2,8.5c-1,6-5.4,9.5-10.5,11.9c2.1,6.8,3.1,13.8,2.5,21c-0.2,2.4-2.3,4.4-4.5,4.9c8.3,22.8,12.5,47.3,15.5,71.2
			c2.2,17,3.2,34.1,3.3,51.2c0.1,7.7-0.1,15.5-0.4,23.2l-0.1,2.9c-0.4,8.4-0.4,17.1-1.9,25.4c5.1,8.7,7.2,19.5,8,29.3
			c1.1,12.1-0.6,24.5-4.4,36c-14.4,43.4-57.8,70.8-101.4,77.9c-40.3,6.6-87-2.3-110.6-38.9c-0.4-0.6,0.4-1.1,0.9-0.7
			c16.9,13.7,36.4,19.8,57.7,22.8c36.8,5.1,78.1-3.6,107.6-26.7c14.2-11.1,24.4-27.3,28.9-44.7c2.3-8.9,3.1-18.2,2.2-27.3
			c-0.9-9.3-5-17.2-7.6-26c-0.9-3,0.1-5.7,1.9-7.7c0.5-7.1,1.7-14.3,2.2-21.4c0.5-8.1,0.8-16.1,0.9-24.2c0.2-16.8-0.5-33.6-1.9-50.2
			c-2.6-30.6-9.4-60.4-13.4-90.7c-1.5,1.3-3.6,1.9-5.9,0.7l-0.2-0.1l-1.2-0.7c-0.1,0-0.2,0-0.2,0c-8.3,0.8-17-0.3-25-2.8
			c-8.4-2.6-16.1-6.6-23.1-11.9c-1.3,6.7-1.9,13.4-1.9,20.3c0,4.3-4.5,6.5-8.1,4.7c-15.9-8.1-31-17.4-45.4-27.8
			c-1.7,8.6-3.4,17.2-5.1,25.8c-0.6,3.3-4.9,4.7-7.6,3.1c-10.8-6.3-20.1-14.5-27.7-24.2c-1.5,2.9-3,5.8-4.6,8.7l-2.3,4.3
			c-2.3,4.3-5.3,9-10.3,10.3c-5.3,1.4-9.7-2-11.4-6.7c-0.5-1.5-1-3-1.5-4.5c-4.5,10.2-9.5,20.2-15.3,29.8
			c-8.6,14.3-18.9,27.1-29.2,40.1c-3.1,4-8.5,0.2-8.9-3.7c-0.3-2.3-0.5-4.5-0.6-6.8c-6,12.1-12.2,24-19,35.7l1,3.8l0,0
			c2.8,11.3,5.1,22.6,7.7,34c0.8,3.7-1.1,8.9-5.4,9.5c-5.1,0.7-9.9,3.4-15.2,1.6c-5.7-2-6.8-6.9-9.5-11.6c-0.5-0.9-1.2-1.8-1.8-2.6
			l-0.2,0.2l0,0c-0.4,0.6-1.4,0-1.2-0.7l0.3-0.7l0,0c-2.3-2.5-5.1-4.5-7.6-6.7c-6-1-12.9,0.1-17,2.6c-9.5,5.6-13.8,17.1-13.9,27.8
			c-0.1,12.4,3.7,26.4,10.2,37c2.9,4.7,6.8,8.9,12,11c5.1,2.1,10.7,1.4,15.9,3.4c3.5,1.3,5.6,5.1,3.5,8.6c-0.1,0.2-0.3,0.5-0.5,0.7
			l1.6,2.1c1.1,1.4,2.2,3,3.2,4.6c2.7,3.1,5.5,6,8.2,9c5,5.5,9.9,11.3,14.8,16.9c4.7,5.3,9.6,10.3,14.6,15.2
			c4.8,4.7,10.8,8.6,15.2,13.5c4.3,4.8,5.4,13.3-1.6,16.1c-7.8,3.1-14.7-4.2-19.9-9l-0.2-0.2c-9.6-8.8-18.3-19-25.2-30.1
			c-6.8,4.6-16.7,5.1-23.5,0.4c-3.6-2.4-6.3-6.6-7.7-11c-1.3,0.3-2.5,0.4-3.7,0.4c-0.6,0.4-1.3,0.7-1.9,1.1
			c-5.1,2.6-11.3,1.5-13.6-4.2c-2.1-5.1,0.1-10.9,2-15.8l0.4-1c1.1-2.8,2.3-5.8,3.8-8.7c-4.1-3.1-7.6-7-10.6-11.3
			c-10-14.8-15-36.3-12.8-53.9c1.3-10.6,6.3-21.6,14.5-28.8l-0.3-0.8l0,0c-2.3-5.8-4.4-11.6-5.7-17.8c-1.6-7.2-2.4-14.6-3-21.9
			c-1.5-15.4-1.1-31.2,0.9-46.6c3.7-28.9,13.1-57.4,29.7-81.5c-4.7-5.7-8.5-12.3-6.5-19.9c0.9-3.5,2.9-6.8,6-8.9
			c1.7-1.1,3.7-1.3,5.4-2.2l0.5-0.3c0.7-0.4,0.2-0.4-0.3-2.4c-1.8-8-0.3-15.8,8.5-18.5c8.3-2.5,16.2,2.8,21.1,9.2
			c12.9-9.2,29.9-13.9,44.9-18C672.2,97.5,689.6,94.6,707.1,92.8z M567.8,362.5c-0.1-6.5,6.1-10.6,12.3-9.5
			c4.1,0.7,7.5,3.2,10.7,5.7l1.6,1.2c3.9,3.1,8.4,6.4,10.7,10.7c3.4,6.4-3.8,15.1-10.6,10.6c-4.6-3.1-7.6-8.1-10.6-12.7l-0.3-0.5
			c-1.4-2.1-2.6-4.3-4.5-5.9l-0.4-0.4c-0.6-0.5-1.3-1-2.1-1.2c-1.5-0.4-4.4,0.2-5.1,2l-0.1,0.2C569.2,363.7,567.8,363.5,567.8,362.5
			z"/>
	</g>
	<path class="st1" d="M787.4,353c12.3-7,43.1-14.2,45,7.9c0.9,10.2-6.7,18.6-15.5,22.3l-0.3,0.1c-8.3,3.4-22.9,7.2-30.1-0.1
		c-6-6.1,1.9-17.1,9.4-12.1c3.8,2.6,11.8,0.7,16.1-0.5l0.3-0.1c4.6-1.3,10.7-5.7,8.8-11.3c-1.7-5-8.8-5.9-13.3-6.1
		c-6.7-0.2-13.2,1.3-19.8,1.8C786.9,355,786.5,353.5,787.4,353z"/>
	<path class="st1" d="M838.2,317.5c16.7-0.8,27,17.4,23.2,32.3c-0.7,2.6-3.5,5.1-6.3,4.8l-0.7-0.1c-0.4,0-0.7-0.1-1-0.2
		c-2.6-0.7-5-3.5-4.8-6.3l0.1-0.8c0.4-7-0.4-15.1-8.7-16.9c-7.1-1.4-11.1,5.4-11.1,11.7c0,1.1-1.3,1.9-2.3,1.3
		c-5.1-3.1-6-9.3-4.1-14.7C824.9,321.9,831.1,317.8,838.2,317.5z"/>
	<path class="st1" d="M714.6,321.4c12.1-4,25.2,2.4,31.1,13.1c2.1,0.6,4.1,2.2,3.8,4.6c-0.4,3.5-1,5.7-3.5,8.4
		c-3.8,4.1-10.9,2-12.5-3.1l-0.1-0.2c-1.8-6.6-9.1-11-15.7-8.6c-7.7,2.7-7.5,10.9-12.9,15.6c-0.6,0.6-1.4,0.6-2.2,0.3
		c-5.8-2.8-4.7-11.2-2.7-16C702.8,329.2,708,323.6,714.6,321.4z"/>
	<path class="st1" d="M698.1,284.5c9.8-10,35.4-19.7,42.2-1.2c1.3,3.5-1.4,8.3-5.1,9c-6,1.2-11.3-1.4-17.3-0.9
		c-4.8,0.4-9.9,2-13.7,5c-10.7,8.3-13.1,22.3-20.5,32.9c-0.4,0.5-1.1,0.3-1.1-0.3C680.8,313.6,687.4,295.5,698.1,284.5z"/>
	<path class="st1" d="M826.2,274.7c6.5-2.3,13.9-2.1,20.5-0.1c6.6,2.1,12.7,6,17.3,11.1c2.1,2.3,4.1,4.9,5.6,7.6
		c0.8,1.4,1.7,4.4,2.7,6.2c5.1,3,7.3,9.7,2.7,14.5l-0.2,0.2l-0.6,0.6c-2.5,2.4-6.2,3.5-9.6,2.5c-7.5-2.2-8.5-8.1-11.1-14.4
		c-1.7-4.2-4.7-7.9-8.3-10.6c-8.5-6.4-22.4-8.4-32.6-5.4c-0.5,0.2-1.2-0.5-0.8-1c1.9-2.5,3-4.6,5.6-6.6
		C820.2,277.3,823.1,275.8,826.2,274.7z"/>
	<g id="facial-hair_x2F_Full-2">
		<path id="_xD83D__xDD8D_-Ink_3_" class="st1" d="M857.5,475.8c-3.5-1.1-6.9-2.5-10.4-3.8c-17.6-8.8-38.9-10.4-57.3-3
			c-9.1,3.7-17.5,10.2-26.6,14.5c-2.2,0.8-4.3,1.5-6.5,2.2c-1.4-0.5-2.7-1-4-1.5c-9.6-3.6-18.7-8.1-27.5-13.1
			c-0.9-1.3-1.9-2.6-3-3.8c6.4-0.9,12.6-2.4,18.3-4c17.3-4.8,33.7-12.5,51-17.5c16.1-4.6,33.5-7.2,49.7-1.4
			c7.7,2.7,14.4,7.5,21.9,10.7c3.9,1.7,8.5,3.3,13,3.5c-2.9,7-6.6,13.5-11.6,18.9C862,477.2,859.7,476.5,857.5,475.8z M895,421.2
			c-1.5,1.3-7.9,5.4-10,7.9c-0.5-0.2-1.1-0.4-1.6-0.6c-0.9-1.1-2.2-1.6-3.6-1.6c-9.5-4.4-18-10.7-25.6-18.5
			c-5.4-5.6-10.9-11.4-18.1-14.6c-8.5-3.8-16.8-2.1-25.7-1.5c-9.5,0.6-18.8-2.1-28.3-0.8c-6.9,1-13.4,3.9-19,8
			c-11.4,8.4-19.3,20.3-29,30.5c-11,11.6-24.4,19-39.4,22.8c-0.2-0.1-0.4-0.2-0.6-0.3c-11-10-21-21.3-29.9-33.3
			c-8.6-11.8-31.3-64.6-36.8-69.3c-2.3-1.9-4.8-2.8-7.2-2.7c-4.3,0.1-8.3,3.1-10.1,7.9c-3,8.1-1.5,18.5-1.3,26.9
			c0.3,10.3,1,20.6,2.1,30.9c1.1,10.1,2.5,20.3,4.3,30.3c0.9,5.1,1.9,10.2,3,15.2c0.3,1.6,0.8,3,1.3,4.3c0.5,2.5,1.1,5,1.7,7.4
			c4,16.1,10.3,32.2,22.3,44.1c12.5,12.4,29.4,20.6,45.2,28c15,7,30.7,13.2,46.8,18.1c14,6.3,29,11.4,44.1,14
			c16.6,2.9,34,3.1,50-2.7c7.9-2.8,15.3-6.8,22.1-11.7c9.6-5,18.2-11.8,25.2-20.8c12.6-16.2,18.7-35.9,21.3-56.1
			c0.7-5.2,3.2-25.1,3.4-28.2c0.6-10,1.3-20,1.9-30C903.9,420,898.1,418.7,895,421.2z"/>
	</g>
</g>
</svg>
